<?xml version="1.0" standalone="no"?>
<!DOCTYPE svg PUBLIC "-//W3C//DTD SVG 20010904//EN"
 "http://www.w3.org/TR/2001/REC-SVG-20010904/DTD/svg10.dtd">
<svg version="1.0" xmlns="http://www.w3.org/2000/svg"
 width="98.000000pt" height="94.000000pt" viewBox="0 0 98.000000 94.000000"
 preserveAspectRatio="xMidYMid meet">

<g transform="translate(0.000000,94.000000) scale(0.100000,-0.100000)"
fill="#000000" stroke="none">
<path d="M0 470 l0 -470 490 0 490 0 0 470 0 470 -490 0 -490 0 0 -470z m772
358 c-68 -113 -212 -379 -212 -393 0 -44 41 -73 54 -39 4 9 9 15 12 12 2 -3
-1 -17 -7 -32 -18 -39 2 -80 35 -72 23 6 24 4 14 -22 -10 -25 -4 -38 60 -142
39 -63 69 -117 66 -119 -6 -7 -4 -9 -132 199 -117 192 -119 195 -155 198 -24
2 -37 -1 -37 -9 0 -6 50 -94 111 -196 61 -101 109 -186 106 -189 -2 -3 -40 53
-82 123 -176 290 -163 273 -201 273 -23 0 -34 -5 -34 -15 0 -8 41 -81 91 -162
108 -176 112 -183 102 -183 -5 0 -57 81 -118 180 l-109 180 -138 0 c-85 0
-138 4 -138 10 0 6 85 10 236 10 214 0 238 2 250 18 18 23 18 62 -1 62 -8 0
-35 -5 -59 -12 -34 -9 -56 -9 -98 1 -44 10 -60 10 -94 -2 -34 -13 -46 -13 -80
-1 -21 8 -52 14 -68 14 -23 0 -27 3 -18 12 9 9 24 8 65 -2 32 -7 69 -10 88 -5
19 3 49 6 67 6 57 -3 156 -2 202 1 38 3 46 7 54 30 13 37 3 44 -45 31 -31 -8
-51 -7 -86 3 -39 12 -53 12 -95 -1 -34 -10 -56 -11 -74 -5 -14 6 -40 10 -59
10 -19 0 -36 4 -40 9 -10 17 34 23 71 11 22 -8 54 -10 83 -5 55 8 84 8 134 -1
21 -3 64 -1 96 6 l57 13 63 114 c35 62 68 113 73 113 5 0 1 -15 -10 -32z m46
-93 c-11 -20 -23 -34 -25 -31 -7 7 26 66 37 66 5 0 0 -16 -12 -35z m-63 -114
c-14 -29 -35 -49 -35 -36 0 13 34 65 42 65 5 0 2 -13 -7 -29z m98 -1 c-9 -16
-21 -30 -26 -30 -4 0 0 14 10 30 9 17 21 30 26 30 4 0 0 -13 -10 -30z m-65
-115 c-11 -20 -23 -34 -25 -31 -7 7 26 66 37 66 5 0 0 -16 -12 -35z m-90 18
c-24 -49 -32 -63 -39 -63 -5 0 -1 16 8 35 9 19 21 35 26 35 5 0 7 -3 5 -7z
m26 -135 c-9 -18 -19 -28 -21 -21 -5 13 27 67 34 59 3 -2 -3 -19 -13 -38z"/>
</g>
</svg>
